<svg width="1920" height="771" viewBox="0 0 1920 771" fill="none" xmlns="http://www.w3.org/2000/svg">
<rect y="629.464" width="34.1637" height="141.536" rx="12" fill="url(#paint0_linear_1877_13312)"/>
<rect x="40.9965" y="629.464" width="34.1637" height="141.536" rx="12" fill="url(#paint1_linear_1877_13312)"/>
<rect x="81.9929" y="592.217" width="34.1637" height="178.783" rx="12" fill="url(#paint2_linear_1877_13312)"/>
<rect x="122.989" y="592.217" width="34.1637" height="178.783" rx="12" fill="url(#paint3_linear_1877_13312)"/>
<rect x="163.986" y="525.174" width="34.1637" height="245.826" rx="12" fill="url(#paint4_linear_1877_13312)"/>
<rect x="204.982" y="558.696" width="34.1637" height="212.304" rx="12" fill="url(#paint5_linear_1877_13312)"/>
<rect x="245.979" y="495.377" width="34.1637" height="275.623" rx="12" fill="url(#paint6_linear_1877_13312)"/>
<rect x="286.975" y="495.377" width="34.1637" height="275.623" rx="12" fill="url(#paint7_linear_1877_13312)"/>
<rect x="327.972" y="495.377" width="34.1637" height="275.623" rx="12" fill="url(#paint8_linear_1877_13312)"/>
<rect x="368.968" y="495.377" width="34.1637" height="275.623" rx="12" fill="url(#paint9_linear_1877_13312)"/>
<rect x="409.964" y="525.174" width="34.1637" height="245.826" rx="12" fill="url(#paint10_linear_1877_13312)"/>
<rect x="450.961" y="525.174" width="34.1637" height="245.826" rx="12" fill="url(#paint11_linear_1877_13312)"/>
<rect x="491.957" y="405.985" width="34.1637" height="365.014" rx="12" fill="url(#paint12_linear_1877_13312)"/>
<rect x="532.954" y="405.985" width="34.1637" height="365.014" rx="12" fill="url(#paint13_linear_1877_13312)"/>
<rect x="573.95" y="316.594" width="34.1637" height="454.406" rx="12" fill="url(#paint14_linear_1877_13312)"/>
<rect x="614.947" y="316.594" width="34.1637" height="454.406" rx="12" fill="url(#paint15_linear_1877_13312)"/>
<rect x="655.943" y="316.594" width="34.1637" height="454.406" rx="12" fill="url(#paint16_linear_1877_13312)"/>
<rect x="696.94" y="297.971" width="34.1637" height="473.029" rx="12" fill="url(#paint17_linear_1877_13312)"/>
<rect x="737.936" y="297.971" width="34.1637" height="473.029" rx="12" fill="url(#paint18_linear_1877_13312)"/>
<rect x="778.932" y="297.971" width="34.1637" height="473.029" rx="12" fill="url(#paint19_linear_1877_13312)"/>
<rect x="819.929" y="346.391" width="34.1637" height="424.608" rx="12" fill="url(#paint20_linear_1877_13312)"/>
<rect x="860.925" y="346.391" width="34.1637" height="424.608" rx="12" fill="url(#paint21_linear_1877_13312)"/>
<rect x="901.922" y="346.391" width="34.1637" height="424.608" rx="12" fill="url(#paint22_linear_1877_13312)"/>
<rect x="942.918" y="316.594" width="34.1637" height="454.406" rx="12" fill="url(#paint23_linear_1877_13312)"/>
<rect x="983.914" y="245.826" width="34.1637" height="525.174" rx="12" fill="url(#paint24_linear_1877_13312)"/>
<rect x="1024.91" y="245.826" width="34.1637" height="525.174" rx="12" fill="url(#paint25_linear_1877_13312)"/>
<rect x="1065.91" y="245.826" width="34.1637" height="525.174" rx="12" fill="url(#paint26_linear_1877_13312)"/>
<rect x="1106.9" y="193.681" width="34.1637" height="577.319" rx="12" fill="url(#paint27_linear_1877_13312)"/>
<rect x="1147.9" y="193.681" width="34.1637" height="577.319" rx="12" fill="url(#paint28_linear_1877_13312)"/>
<rect x="1188.9" y="193.681" width="34.1637" height="577.319" rx="12" fill="url(#paint29_linear_1877_13312)"/>
<rect x="1229.89" y="219.754" width="34.1637" height="551.247" rx="12" fill="url(#paint30_linear_1877_13312)"/>
<rect x="1270.89" y="219.754" width="34.1637" height="551.247" rx="12" fill="url(#paint31_linear_1877_13312)"/>
<rect x="1311.89" y="141.536" width="34.1637" height="629.464" rx="12" fill="url(#paint32_linear_1877_13312)"/>
<rect x="1352.88" y="141.536" width="34.1637" height="629.464" rx="12" fill="url(#paint33_linear_1877_13312)"/>
<rect x="1393.88" y="141.536" width="34.1637" height="629.464" rx="12" fill="url(#paint34_linear_1877_13312)"/>
<rect x="1434.88" y="175.058" width="34.1637" height="595.942" rx="12" fill="url(#paint35_linear_1877_13312)"/>
<rect x="1475.87" y="175.058" width="34.1637" height="595.942" rx="12" fill="url(#paint36_linear_1877_13312)"/>
<rect x="1516.87" y="122.913" width="34.1637" height="648.087" rx="12" fill="url(#paint37_linear_1877_13312)"/>
<rect x="1557.86" y="122.913" width="34.1637" height="648.087" rx="12" fill="url(#paint38_linear_1877_13312)"/>
<rect x="1598.86" y="33.5215" width="34.1637" height="737.479" rx="12" fill="url(#paint39_linear_1877_13312)"/>
<rect x="1639.86" y="33.5215" width="34.1637" height="737.479" rx="12" fill="url(#paint40_linear_1877_13312)"/>
<rect x="1680.85" y="33.5215" width="34.1637" height="737.479" rx="12" fill="url(#paint41_linear_1877_13312)"/>
<rect x="1721.85" y="33.5215" width="34.1637" height="737.479" rx="12" fill="url(#paint42_linear_1877_13312)"/>
<rect x="1762.85" y="33.5215" width="34.1637" height="737.479" rx="12" fill="url(#paint43_linear_1877_13312)"/>
<rect x="1803.84" width="34.1637" height="771" rx="12" fill="url(#paint44_linear_1877_13312)"/>
<rect x="1844.84" width="34.1637" height="771" rx="12" fill="url(#paint45_linear_1877_13312)"/>
<rect x="1885.84" width="34.1637" height="771" rx="12" fill="url(#paint46_linear_1877_13312)"/>
<defs>
<linearGradient id="paint0_linear_1877_13312" x1="17.0818" y1="629.464" x2="17.0818" y2="771" gradientUnits="userSpaceOnUse">
<stop stop-color="#469CFF"/>
<stop offset="1" stop-color="#0077FF"/>
</linearGradient>
<linearGradient id="paint1_linear_1877_13312" x1="58.0783" y1="629.464" x2="58.0783" y2="771" gradientUnits="userSpaceOnUse">
<stop stop-color="#469CFF"/>
<stop offset="1" stop-color="#0077FF"/>
</linearGradient>
<linearGradient id="paint2_linear_1877_13312" x1="99.0748" y1="592.217" x2="99.0748" y2="771" gradientUnits="userSpaceOnUse">
<stop stop-color="#469CFF"/>
<stop offset="1" stop-color="#0077FF"/>
</linearGradient>
<linearGradient id="paint3_linear_1877_13312" x1="140.071" y1="592.217" x2="140.071" y2="771" gradientUnits="userSpaceOnUse">
<stop stop-color="#469CFF"/>
<stop offset="1" stop-color="#0077FF"/>
</linearGradient>
<linearGradient id="paint4_linear_1877_13312" x1="181.068" y1="525.174" x2="181.068" y2="771" gradientUnits="userSpaceOnUse">
<stop stop-color="#469CFF"/>
<stop offset="1" stop-color="#0077FF"/>
</linearGradient>
<linearGradient id="paint5_linear_1877_13312" x1="222.064" y1="558.696" x2="222.064" y2="771" gradientUnits="userSpaceOnUse">
<stop stop-color="#469CFF"/>
<stop offset="1" stop-color="#0077FF"/>
</linearGradient>
<linearGradient id="paint6_linear_1877_13312" x1="263.06" y1="495.377" x2="263.06" y2="771" gradientUnits="userSpaceOnUse">
<stop stop-color="#469CFF"/>
<stop offset="1" stop-color="#0077FF"/>
</linearGradient>
<linearGradient id="paint7_linear_1877_13312" x1="304.057" y1="495.377" x2="304.057" y2="771" gradientUnits="userSpaceOnUse">
<stop stop-color="#469CFF"/>
<stop offset="1" stop-color="#0077FF"/>
</linearGradient>
<linearGradient id="paint8_linear_1877_13312" x1="345.053" y1="495.377" x2="345.053" y2="771" gradientUnits="userSpaceOnUse">
<stop stop-color="#469CFF"/>
<stop offset="1" stop-color="#0077FF"/>
</linearGradient>
<linearGradient id="paint9_linear_1877_13312" x1="386.05" y1="495.377" x2="386.05" y2="771" gradientUnits="userSpaceOnUse">
<stop stop-color="#469CFF"/>
<stop offset="1" stop-color="#0077FF"/>
</linearGradient>
<linearGradient id="paint10_linear_1877_13312" x1="427.046" y1="525.174" x2="427.046" y2="771" gradientUnits="userSpaceOnUse">
<stop stop-color="#469CFF"/>
<stop offset="1" stop-color="#0077FF"/>
</linearGradient>
<linearGradient id="paint11_linear_1877_13312" x1="468.043" y1="525.174" x2="468.043" y2="771" gradientUnits="userSpaceOnUse">
<stop stop-color="#469CFF"/>
<stop offset="1" stop-color="#0077FF"/>
</linearGradient>
<linearGradient id="paint12_linear_1877_13312" x1="509.039" y1="405.985" x2="509.039" y2="771" gradientUnits="userSpaceOnUse">
<stop stop-color="#469CFF"/>
<stop offset="1" stop-color="#0077FF"/>
</linearGradient>
<linearGradient id="paint13_linear_1877_13312" x1="550.036" y1="405.985" x2="550.036" y2="771" gradientUnits="userSpaceOnUse">
<stop stop-color="#469CFF"/>
<stop offset="1" stop-color="#0077FF"/>
</linearGradient>
<linearGradient id="paint14_linear_1877_13312" x1="591.032" y1="316.594" x2="591.032" y2="771" gradientUnits="userSpaceOnUse">
<stop stop-color="#469CFF"/>
<stop offset="1" stop-color="#0077FF"/>
</linearGradient>
<linearGradient id="paint15_linear_1877_13312" x1="632.029" y1="316.594" x2="632.029" y2="771" gradientUnits="userSpaceOnUse">
<stop stop-color="#469CFF"/>
<stop offset="1" stop-color="#0077FF"/>
</linearGradient>
<linearGradient id="paint16_linear_1877_13312" x1="673.025" y1="316.594" x2="673.025" y2="771" gradientUnits="userSpaceOnUse">
<stop stop-color="#469CFF"/>
<stop offset="1" stop-color="#0077FF"/>
</linearGradient>
<linearGradient id="paint17_linear_1877_13312" x1="714.021" y1="297.971" x2="714.021" y2="771" gradientUnits="userSpaceOnUse">
<stop stop-color="#469CFF"/>
<stop offset="1" stop-color="#0077FF"/>
</linearGradient>
<linearGradient id="paint18_linear_1877_13312" x1="755.018" y1="297.971" x2="755.018" y2="771" gradientUnits="userSpaceOnUse">
<stop stop-color="#469CFF"/>
<stop offset="1" stop-color="#0077FF"/>
</linearGradient>
<linearGradient id="paint19_linear_1877_13312" x1="796.014" y1="297.971" x2="796.014" y2="771" gradientUnits="userSpaceOnUse">
<stop stop-color="#469CFF"/>
<stop offset="1" stop-color="#0077FF"/>
</linearGradient>
<linearGradient id="paint20_linear_1877_13312" x1="837.011" y1="346.391" x2="837.011" y2="770.999" gradientUnits="userSpaceOnUse">
<stop stop-color="#469CFF"/>
<stop offset="1" stop-color="#0077FF"/>
</linearGradient>
<linearGradient id="paint21_linear_1877_13312" x1="878.007" y1="346.391" x2="878.007" y2="770.999" gradientUnits="userSpaceOnUse">
<stop stop-color="#469CFF"/>
<stop offset="1" stop-color="#0077FF"/>
</linearGradient>
<linearGradient id="paint22_linear_1877_13312" x1="919.004" y1="346.391" x2="919.004" y2="770.999" gradientUnits="userSpaceOnUse">
<stop stop-color="#469CFF"/>
<stop offset="1" stop-color="#0077FF"/>
</linearGradient>
<linearGradient id="paint23_linear_1877_13312" x1="960" y1="316.594" x2="960" y2="771" gradientUnits="userSpaceOnUse">
<stop stop-color="#469CFF"/>
<stop offset="1" stop-color="#0077FF"/>
</linearGradient>
<linearGradient id="paint24_linear_1877_13312" x1="1001" y1="245.826" x2="1001" y2="771" gradientUnits="userSpaceOnUse">
<stop stop-color="#469CFF"/>
<stop offset="1" stop-color="#0077FF"/>
</linearGradient>
<linearGradient id="paint25_linear_1877_13312" x1="1041.99" y1="245.826" x2="1041.99" y2="771" gradientUnits="userSpaceOnUse">
<stop stop-color="#469CFF"/>
<stop offset="1" stop-color="#0077FF"/>
</linearGradient>
<linearGradient id="paint26_linear_1877_13312" x1="1082.99" y1="245.826" x2="1082.99" y2="771" gradientUnits="userSpaceOnUse">
<stop stop-color="#469CFF"/>
<stop offset="1" stop-color="#0077FF"/>
</linearGradient>
<linearGradient id="paint27_linear_1877_13312" x1="1123.99" y1="193.681" x2="1123.99" y2="771" gradientUnits="userSpaceOnUse">
<stop stop-color="#469CFF"/>
<stop offset="1" stop-color="#0077FF"/>
</linearGradient>
<linearGradient id="paint28_linear_1877_13312" x1="1164.98" y1="193.681" x2="1164.98" y2="771" gradientUnits="userSpaceOnUse">
<stop stop-color="#469CFF"/>
<stop offset="1" stop-color="#0077FF"/>
</linearGradient>
<linearGradient id="paint29_linear_1877_13312" x1="1205.98" y1="193.681" x2="1205.98" y2="771" gradientUnits="userSpaceOnUse">
<stop stop-color="#469CFF"/>
<stop offset="1" stop-color="#0077FF"/>
</linearGradient>
<linearGradient id="paint30_linear_1877_13312" x1="1246.98" y1="219.754" x2="1246.98" y2="771.001" gradientUnits="userSpaceOnUse">
<stop stop-color="#469CFF"/>
<stop offset="1" stop-color="#0077FF"/>
</linearGradient>
<linearGradient id="paint31_linear_1877_13312" x1="1287.97" y1="219.754" x2="1287.97" y2="771.001" gradientUnits="userSpaceOnUse">
<stop stop-color="#469CFF"/>
<stop offset="1" stop-color="#0077FF"/>
</linearGradient>
<linearGradient id="paint32_linear_1877_13312" x1="1328.97" y1="141.536" x2="1328.97" y2="771" gradientUnits="userSpaceOnUse">
<stop stop-color="#469CFF"/>
<stop offset="1" stop-color="#0077FF"/>
</linearGradient>
<linearGradient id="paint33_linear_1877_13312" x1="1369.96" y1="141.536" x2="1369.96" y2="771" gradientUnits="userSpaceOnUse">
<stop stop-color="#469CFF"/>
<stop offset="1" stop-color="#0077FF"/>
</linearGradient>
<linearGradient id="paint34_linear_1877_13312" x1="1410.96" y1="141.536" x2="1410.96" y2="771" gradientUnits="userSpaceOnUse">
<stop stop-color="#469CFF"/>
<stop offset="1" stop-color="#0077FF"/>
</linearGradient>
<linearGradient id="paint35_linear_1877_13312" x1="1451.96" y1="175.058" x2="1451.96" y2="771" gradientUnits="userSpaceOnUse">
<stop stop-color="#469CFF"/>
<stop offset="1" stop-color="#0077FF"/>
</linearGradient>
<linearGradient id="paint36_linear_1877_13312" x1="1492.95" y1="175.058" x2="1492.95" y2="771" gradientUnits="userSpaceOnUse">
<stop stop-color="#469CFF"/>
<stop offset="1" stop-color="#0077FF"/>
</linearGradient>
<linearGradient id="paint37_linear_1877_13312" x1="1533.95" y1="122.913" x2="1533.95" y2="771" gradientUnits="userSpaceOnUse">
<stop stop-color="#469CFF"/>
<stop offset="1" stop-color="#0077FF"/>
</linearGradient>
<linearGradient id="paint38_linear_1877_13312" x1="1574.95" y1="122.913" x2="1574.95" y2="771" gradientUnits="userSpaceOnUse">
<stop stop-color="#469CFF"/>
<stop offset="1" stop-color="#0077FF"/>
</linearGradient>
<linearGradient id="paint39_linear_1877_13312" x1="1615.94" y1="33.5215" x2="1615.94" y2="771" gradientUnits="userSpaceOnUse">
<stop stop-color="#469CFF"/>
<stop offset="1" stop-color="#0077FF"/>
</linearGradient>
<linearGradient id="paint40_linear_1877_13312" x1="1656.94" y1="33.5215" x2="1656.94" y2="771" gradientUnits="userSpaceOnUse">
<stop stop-color="#4DA0FF"/>
<stop offset="1" stop-color="#0077FF"/>
</linearGradient>
<linearGradient id="paint41_linear_1877_13312" x1="1697.94" y1="33.5215" x2="1697.94" y2="771" gradientUnits="userSpaceOnUse">
<stop stop-color="#469CFF"/>
<stop offset="1" stop-color="#0077FF"/>
</linearGradient>
<linearGradient id="paint42_linear_1877_13312" x1="1738.93" y1="33.5215" x2="1738.93" y2="771" gradientUnits="userSpaceOnUse">
<stop stop-color="#469CFF"/>
<stop offset="1" stop-color="#0077FF"/>
</linearGradient>
<linearGradient id="paint43_linear_1877_13312" x1="1779.93" y1="33.5215" x2="1779.93" y2="771" gradientUnits="userSpaceOnUse">
<stop stop-color="#469CFF"/>
<stop offset="1" stop-color="#0077FF"/>
</linearGradient>
<linearGradient id="paint44_linear_1877_13312" x1="1820.93" y1="0" x2="1820.93" y2="771" gradientUnits="userSpaceOnUse">
<stop stop-color="#469CFF"/>
<stop offset="1" stop-color="#0077FF"/>
</linearGradient>
<linearGradient id="paint45_linear_1877_13312" x1="1861.92" y1="0" x2="1861.92" y2="771" gradientUnits="userSpaceOnUse">
<stop stop-color="#469CFF"/>
<stop offset="1" stop-color="#0077FF"/>
</linearGradient>
<linearGradient id="paint46_linear_1877_13312" x1="1902.92" y1="0" x2="1902.92" y2="771" gradientUnits="userSpaceOnUse">
<stop stop-color="#469CFF"/>
<stop offset="1" stop-color="#0077FF"/>
</linearGradient>
</defs>
</svg>
