<svg xmlns="http://www.w3.org/2000/svg" width="24" height="24" viewBox="0 0 24 24" fill="none">
    <path fill-rule="evenodd" clip-rule="evenodd" d="M7.76393 17.6459L12 19.7639L16.2361 17.6459C17.93 16.7989 19 15.0676 19 13.1738V5.99179C16.5684 5.91659 14.1826 5.32582 12 4.26127C9.81743 5.32582 7.43164 5.91659 5 5.99179V13.1738C5 15.0676 6.07001 16.7989 7.76393 17.6459ZM6.8695 19.4348C4.49802 18.249 3 15.8252 3 13.1738V4H4.46887C7.11051 4 9.70642 3.31062 12 2C14.2936 3.31062 16.8895 4 19.5311 4H21V13.1738C21 15.8252 19.502 18.249 17.1305 19.4348L12 22L6.8695 19.4348ZM11.4142 15L16.7071 9.70712L15.2929 8.29291L10.7944 12.7913L8.76819 10.3598L7.23175 11.6402L10.0316 15H11.4142Z" fill="#0077FF"/>
</svg>