<svg xmlns="http://www.w3.org/2000/svg" width="25" height="24" viewBox="0 0 25 24" fill="none">
    <g clip-path="url(#clip0_731_63)">
        <path fill-rule="evenodd" clip-rule="evenodd" d="M18.6667 5L13.6655 8.12576C13.3463 8.0437 13.0116 8.00006 12.6667 8.00006C10.4576 8.00006 8.66675 9.79092 8.66675 12.0001C8.66675 14.2092 10.4576 16.0001 12.6667 16.0001C14.8759 16.0001 16.6667 14.2092 16.6667 12.0001C16.6667 11.6552 16.6231 11.3205 16.541 11.0012L19.6667 6L18.6667 5ZM12.6962 14.0294C13.8007 14.0294 14.6962 13.134 14.6962 12.0294C14.6962 10.9248 13.8007 10.0294 12.6962 10.0294C11.5916 10.0294 10.6962 10.9248 10.6962 12.0294C10.6962 13.134 11.5916 14.0294 12.6962 14.0294Z" fill="#2420FC"/>
        <path fill-rule="evenodd" clip-rule="evenodd" d="M24.6667 12C24.6667 18.6274 19.2942 24 12.6667 24C6.03933 24 0.666748 18.6274 0.666748 12C0.666748 5.37258 6.03933 0 12.6667 0C19.2942 0 24.6667 5.37258 24.6667 12ZM22.6667 12C22.6667 17.5228 18.1896 22 12.6667 22C7.15371 22 2.68266 17.5387 2.66679 12.0294H5.69617C5.69617 8.16343 8.83017 5.02942 12.6962 5.02942V2.00004C18.2055 2.01591 22.6667 6.48696 22.6667 12Z" fill="#2420FC"/>
    </g>
    <defs>
        <clipPath id="clip0_731_63">
            <rect width="24" height="24" fill="white" transform="translate(0.666748)"/>
        </clipPath>
    </defs>
</svg>