<svg xmlns="http://www.w3.org/2000/svg" width="25" height="24" viewBox="0 0 25 24" fill="none">
    <path d="M11.3335 19L11.3335 20L13.3335 20L13.3335 19L11.3335 19ZM13.3335 19L13.3335 10L11.3335 10L11.3335 19L13.3335 19Z" fill="#2420FC"/>
    <path d="M8.3335 19L8.3335 20L10.3335 20L10.3335 19L8.3335 19ZM10.3335 19L10.3335 12L8.3335 12L8.3335 19L10.3335 19Z" fill="#2420FC"/>
    <path d="M5.3335 19L5.3335 20L7.3335 20L7.3335 19L5.3335 19ZM7.3335 19L7.3335 14L5.3335 14L5.3335 19L7.3335 19Z" fill="#2420FC"/>
    <path d="M2.3335 19L2.3335 20L4.3335 20L4.3335 19L2.3335 19ZM4.3335 19L4.3335 11L2.3335 11L2.3335 19L4.3335 19Z" fill="#2420FC"/>
    <path d="M14.3335 19L14.3335 20L16.3335 20L16.3335 19L14.3335 19ZM16.3335 19L16.3335 8L14.3335 8L14.3335 19L16.3335 19Z" fill="#2420FC"/>
    <path d="M17.3335 19L17.3335 20L19.3335 20L19.3335 19L17.3335 19ZM19.3335 19L19.3335 6L17.3335 6L17.3335 19L19.3335 19Z" fill="#2420FC"/>
    <path d="M20.3335 19L20.3335 20L22.3335 20L22.3335 19L20.3335 19ZM22.3335 19L22.3335 3L20.3335 3L20.3335 19L22.3335 19Z" fill="#2420FC"/>
</svg>