<svg xmlns="http://www.w3.org/2000/svg" width="24" height="24" viewBox="0 0 24 24" fill="none">
    <g clip-path="url(#clip0_861_505)">
        <path d="M22.2267 0H1.77333C0.786667 0 0 0.786667 0 1.77333V22.2267C0 23.2 0.786667 24 1.77333 24H22.2267C23.2 24 24 23.2133 24 22.2267V1.77333C24 0.8 23.2133 0 22.2267 0ZM7.14667 20.44H3.54667V8.98667H7.16V20.44H7.14667ZM5.34667 7.38667C4.2 7.38667 3.26667 6.50667 3.26667 5.32C3.26667 4.13333 4.2 3.25333 5.34667 3.25333C6.49333 3.25333 7.42667 4.13333 7.42667 5.32C7.42667 6.50667 6.49333 7.38667 5.34667 7.38667ZM20.4533 20.4533H16.84V14.1867C16.84 12.3333 16.0533 11.7733 15.04 11.7733C13.9733 11.7733 12.92 12.5733 12.92 14.24V20.4533H9.30667V8.98667H12.7733V10.5733H12.8133C13.16 9.86667 14.3867 8.66667 16.24 8.66667C18.2533 8.66667 20.4267 9.86667 20.4267 13.36V20.4533H20.4533Z" fill="#1569BF"/>
    </g>
    <defs>
        <clipPath id="clip0_861_505">
            <rect width="24" height="24" fill="white"/>
        </clipPath>
    </defs>
</svg>